<svg width="26" height="16" viewBox="0 0 26 16" fill="none" xmlns="http://www.w3.org/2000/svg">
<path d="M8.04043 0.5C9.57677 0.5 11.0009 0.958414 12.1891 1.7377C10.5093 3.28212 9.43995 5.49526 9.43995 7.96392C9.43995 10.4283 10.5038 12.6585 12.1859 14.1922C10.9983 14.9703 9.57538 15.4278 8.04043 15.4278C3.8677 15.4278 0.5 12.0853 0.5 7.96392C0.5 3.84249 3.8677 0.5 8.04043 0.5Z" stroke="white"/>
<path d="M25.5 7.96392C25.5 12.0853 22.1323 15.4278 17.9596 15.4278C16.4244 15.4278 15.0012 14.9701 13.8135 14.1919C15.5113 12.6439 16.56 10.431 16.56 7.96392C16.56 5.49508 15.4906 3.2818 13.8105 1.73737C14.9967 0.958384 16.4207 0.5 17.957 0.5C22.1315 0.5 25.5 3.86485 25.5 7.96392Z" stroke="white"/>
</svg>
