<svg width="129" height="80" viewBox="0 0 129 80" fill="none" xmlns="http://www.w3.org/2000/svg">
<path d="M18.4498 54.1741L3.30128 45.4006C2.67731 45.039 2.29297 44.3724 2.29297 43.6513V25.3904L18.4498 10.4537V54.1741Z" fill="#5F8A6C"/>
<path opacity="0.8" d="M31.4216 70C19.7871 68.0405 20.5181 55.0984 20.5268 54.968L20.5262 54.7962L19.1257 53.9854L34.1373 45.5151C34.6825 45.2077 35.0197 44.6304 35.0197 44.0046V25.5913L18.9961 11.16L20.0312 12.0374L20.8611 11.2699L37.4311 26.2073V44.1423C37.4311 45.0632 36.935 45.9128 36.133 46.3658L21.1965 54.8009V54.9903C21.1936 55.0439 21.002 58.188 22.1907 61.5133C23.7687 65.9277 26.9123 68.5608 31.5328 69.3389L31.4216 70Z" fill="#C2C3C1"/>
<path d="M18.4355 54.1741V54.1657L18.4429 54.1699L18.4355 54.1741ZM18.45 54.166V10.4671L18.9964 10.9591L18.6565 10.6709L18.45 10.8981V53.3928L19.126 53.7845L18.45 54.166ZM18.4355 10.4671V10.4537L18.4429 10.4604L18.4355 10.4671Z" fill="#5F8A6C"/>
<path d="M18.4429 54.1699L18.4355 54.1657V10.4671L18.4429 10.4604L18.45 10.4671V54.166L18.4429 54.1699Z" fill="#274730"/>
<path d="M19.1253 53.7844L18.4492 53.3927V10.898L18.6558 10.6708L18.9956 10.959L35.0192 25.3903V43.8036C35.0192 44.4294 34.682 45.0067 34.1369 45.3141L19.1253 53.7844Z" fill="#4A6B56"/>
<path opacity="0.8" d="M18.449 10.4537L18.2215 10.2077L1.95703 25.2443V43.2243C1.95703 44.3295 2.54561 45.3506 3.50211 45.9047L18.4469 54.5603L33.8858 45.8413C34.7931 45.3289 35.3542 44.368 35.3542 43.3259V25.2416L18.4461 9.99992L18.2215 10.2077L18.449 10.4537L18.2246 10.7031L34.6839 25.5399V43.3259C34.6839 44.1261 34.2529 44.8644 33.5562 45.2577L18.4511 53.7879L3.838 45.3245C3.08868 44.8906 2.62732 44.0902 2.62732 43.2243V25.5372L18.6765 10.6997L18.449 10.4537Z" fill="white"/>
<path opacity="0.8" d="M2.2207 25.5425L18.4477 33.1628L35.0884 25.5432L34.9489 25.2382L18.4496 32.7934L2.36314 25.2389L2.2207 25.5425Z" fill="white"/>
<path opacity="0.8" d="M18.114 10.4537V54.1741H18.4492L18.1148 54.1515C18.1143 54.1584 18.0996 54.3796 18.0996 54.765C18.1009 56.0593 18.2609 59.2026 19.7028 62.2707C21.1382 65.3375 23.9065 68.3305 29.0096 69.1838L29.1209 68.5227C24.2403 67.6945 21.6932 64.9091 20.3095 61.9853C18.932 59.0622 18.7686 56.0024 18.7699 54.765C18.7699 54.5809 18.7733 54.4372 18.7767 54.3401C18.7804 54.2432 18.7835 54.1966 18.7835 54.1963L18.7843 54.1853V32.9783V10.4537H18.114Z" fill="white"/>
<path opacity="0.8" d="M23.6779 21.4599L18.3125 23.9795L18.4549 24.2825L23.8203 21.7629" fill="white"/>
<path opacity="0.8" d="M18.4607 43.19L11.2341 39.5043L11.082 39.803L18.3083 43.4885" fill="white"/>
<path d="M46.7742 35.7254C46.9287 35.6036 47.0828 35.6036 47.2373 35.7254L47.3465 35.822L47.3591 37.4412L47.3705 39.073L47.5901 39.0482C48.2712 38.9676 48.8759 38.9138 49.4028 38.8898C49.7031 38.8739 49.8941 38.8856 49.9751 38.9264C50.081 38.9751 50.144 39.0524 50.1641 39.1578C50.1839 39.2632 50.1578 39.364 50.0852 39.4618C50.06 39.4942 49.9877 39.5211 49.866 39.5403C49.7442 39.5609 49.4112 39.592 48.8675 39.6319C48.1212 39.6974 47.6551 39.7414 47.4683 39.7663L47.3222 39.791L47.3339 40.8613C47.3423 41.3485 47.3549 41.6731 47.3705 41.8356C47.3872 41.9977 47.4158 42.1808 47.4557 42.3828C47.5615 42.8299 47.7076 43.2234 47.8945 43.5639C47.9512 43.6693 48.0478 43.8133 48.1864 43.9952C48.3237 44.1779 48.4299 44.3026 48.5021 44.3673C48.649 44.5045 48.6889 44.6553 48.6239 44.8174C48.5672 44.9392 48.4496 45 48.2712 45C48.1906 45 48.0884 44.9345 47.9668 44.8048C47.399 44.1963 47.0177 43.5027 46.8224 42.7233C46.7007 42.2698 46.6411 41.6365 46.6411 40.8248V39.8758L46.2387 39.8511C45.9629 39.8351 45.7803 39.807 45.6908 39.7663C45.5774 39.7092 45.506 39.6286 45.4779 39.5231C45.4494 39.4178 45.4758 39.3198 45.5576 39.2308L45.734 39.1343C45.8021 39.1255 45.9869 39.1343 46.2871 39.1578L46.6411 39.1943L46.6524 37.502L46.665 35.822L46.7742 35.7254Z" fill="white"/>
<path d="M51.9108 38.1833C51.9591 38.1102 52.041 38.0737 52.1544 38.0737C52.3483 38.0737 52.4617 38.1514 52.4945 38.3051C52.5113 38.4029 52.5553 38.8652 52.6289 39.6929C52.6611 40.0011 52.6855 40.1636 52.7023 40.1795L52.7443 40.1678L52.7989 40.0817C52.9291 39.8226 53.123 39.5468 53.3834 39.2554C53.8705 38.6952 54.3451 38.3479 54.8069 38.2148C55.2701 38.0804 55.6677 38.1716 56.0008 38.4877C56.1948 38.6662 56.3186 38.8426 56.3711 39.0177C56.4235 39.1919 56.3933 39.3195 56.28 39.4014C56.0616 39.5627 55.8496 39.4732 55.6468 39.134C55.5179 38.9135 55.3549 38.8165 55.1609 38.8413C54.8523 38.8736 54.4954 39.1003 54.0889 39.5228C53.8537 39.7583 53.6513 40.0175 53.4812 40.3013C53.2701 40.6259 53.123 41.0236 53.0424 41.4943C52.9614 41.9655 52.9291 42.6105 52.9446 43.4293L52.9572 44.3539L52.8481 44.4518C52.7023 44.5743 52.5478 44.5743 52.3853 44.4518L52.2875 44.3304C52.2719 44.2893 52.2551 44.2002 52.2392 44.0625C52.2223 43.8432 52.2152 43.5346 52.2152 43.1383C52.2152 42.521 52.1417 41.5879 51.9956 40.3379C51.8982 39.4296 51.8458 38.864 51.8373 38.6401C51.8297 38.4168 51.8541 38.2652 51.9108 38.1833Z" fill="white"/>
<path d="M60.7588 38.5128C60.7265 38.4721 60.653 38.4514 60.5395 38.4514C60.3115 38.4514 60.0722 38.59 59.8216 38.8655C59.6262 39.0683 59.4339 39.3631 59.2429 39.7477C59.0531 40.1336 58.9166 40.4842 58.8356 40.8005C58.7949 40.9637 58.7823 41.0529 58.799 41.0692C58.8146 41.0851 58.9145 41.0646 59.0971 41.0079C59.2799 40.9507 59.4235 40.8937 59.5297 40.837C59.6346 40.7807 59.7586 40.6875 59.9 40.5573C60.042 40.4284 60.1134 40.3423 60.1134 40.3016L60.1499 40.2293C60.1659 40.2293 60.2213 40.1479 60.3137 39.9854C60.4073 39.8229 60.4829 39.6814 60.5395 39.5596C60.653 39.3156 60.7307 39.0944 60.7706 38.8953C60.8113 38.6975 60.8071 38.5699 60.7588 38.5128ZM60.3443 37.7582C60.4829 37.7334 60.6488 37.7473 60.844 37.8011C61.038 37.8539 61.1799 37.9278 61.2702 38.0256C61.3341 38.0987 61.3878 38.1945 61.4277 38.3117C61.4684 38.43 61.4844 38.59 61.4768 38.792C61.4684 38.9952 61.4319 39.1854 61.3668 39.364C61.3186 39.5189 61.2375 39.7112 61.1233 39.9425C61.0098 40.1735 60.9162 40.3498 60.844 40.4725L60.7768 40.5636L60.7096 40.6606L60.6739 40.7152C60.6412 40.7807 60.5353 40.8937 60.3569 41.0562C60.1625 41.2594 59.9202 41.4282 59.6326 41.5613C59.3449 41.6957 59.0792 41.7625 58.8356 41.7625H58.6773L58.653 41.9451C58.629 42.0505 58.629 42.2491 58.653 42.5405C58.6928 42.963 58.7949 43.2738 58.9574 43.4727C59.1191 43.6714 59.3542 43.7822 59.6628 43.8071C60.3044 43.8566 60.9658 43.3652 61.6469 42.3343C61.8338 42.0589 61.9535 41.8721 62.0059 41.7742C62.0584 41.6772 62.1214 41.5357 62.1949 41.3485C62.2515 41.1948 62.3062 41.0906 62.3586 41.0377C62.4112 40.9852 62.4909 40.9591 62.5959 40.9591C62.6938 40.9591 62.7744 40.9936 62.8395 41.0624C62.9045 41.1313 62.9289 41.2153 62.913 41.3119C62.8722 41.6365 62.6526 42.0904 62.2557 42.6749C62.0449 42.9835 61.9316 43.1456 61.9148 43.1621L61.8665 43.2469C61.8665 43.2716 61.7519 43.3951 61.5251 43.6176C61.2984 43.8415 61.1316 43.9939 61.0267 44.0745C60.7336 44.2853 60.4052 44.4239 60.0408 44.4885C59.8454 44.5292 59.6473 44.5292 59.4445 44.4885C58.9901 44.3915 58.6446 44.1963 58.4094 43.9049C58.3443 43.8318 58.273 43.7058 58.1965 43.5274C58.1197 43.3489 58.0609 43.1868 58.0201 43.0407C57.9391 42.7072 57.9201 42.2882 57.9655 41.7805C58.0096 41.2732 58.1091 40.7853 58.2637 40.3141C58.3287 40.1026 58.4274 39.8531 58.5618 39.5651C58.6949 39.277 58.8116 39.0607 58.9083 38.9138C59.0057 38.7849 59.0552 38.7113 59.0552 38.6954C59.0552 38.6706 59.1253 38.5858 59.2673 38.4397C59.4101 38.2936 59.5326 38.1793 59.6389 38.0987C59.7124 38.0344 59.8236 37.9656 59.9736 37.8912C60.1238 37.8183 60.2478 37.7742 60.3443 37.7582Z" fill="white"/>
<path d="M67.2822 38.5128C67.2498 38.4721 67.1764 38.4514 67.063 38.4514C66.835 38.4514 66.5956 38.59 66.3449 38.8655C66.1497 39.0683 65.9574 39.3631 65.7663 39.7477C65.5765 40.1336 65.44 40.4842 65.3589 40.8005C65.3183 40.9637 65.3056 41.0529 65.3225 41.0692C65.338 41.0851 65.4379 41.0646 65.6206 41.0079C65.8032 40.9507 65.9468 40.8937 66.0531 40.837C66.1581 40.7807 66.2819 40.6875 66.4235 40.5573C66.5654 40.4284 66.6367 40.3423 66.6367 40.3016L66.6733 40.2293C66.6892 40.2293 66.7447 40.1479 66.837 39.9854C66.9308 39.8229 67.0063 39.6814 67.063 39.5596C67.1764 39.3156 67.254 39.0944 67.2939 38.8953C67.3346 38.6975 67.3304 38.5699 67.2822 38.5128ZM66.8678 37.7582C67.0063 37.7334 67.1722 37.7473 67.3674 37.8011C67.5614 37.8539 67.7033 37.9278 67.7936 38.0256C67.8575 38.0987 67.9112 38.1945 67.9511 38.3117C67.9919 38.43 68.0078 38.59 68.0003 38.792C67.9919 38.9952 67.9553 39.1854 67.8902 39.364C67.8419 39.5189 67.7609 39.7112 67.6467 39.9425C67.5333 40.1735 67.4396 40.3498 67.3674 40.4725L67.3002 40.5636L67.233 40.6606L67.1973 40.7152C67.1646 40.7807 67.0588 40.8937 66.8803 41.0562C66.6859 41.2594 66.4436 41.4282 66.156 41.5613C65.8684 41.6957 65.6025 41.7625 65.3589 41.7625H65.2007L65.1763 41.9451C65.1524 42.0505 65.1524 42.2491 65.1763 42.5405C65.2162 42.963 65.3183 43.2738 65.4807 43.4727C65.6424 43.6714 65.8776 43.7822 66.1862 43.8071C66.8279 43.8566 67.4892 43.3652 68.1703 42.3343C68.3571 42.0589 68.4768 41.8721 68.5294 41.7742C68.5818 41.6772 68.6448 41.5357 68.7182 41.3485C68.775 41.1948 68.8296 41.0906 68.8821 41.0377C68.9345 40.9852 69.0143 40.9591 69.1193 40.9591C69.2171 40.9591 69.2977 40.9936 69.3629 41.0624C69.4279 41.1313 69.4523 41.2153 69.4363 41.3119C69.3956 41.6365 69.176 42.0904 68.7792 42.6749C68.5684 42.9835 68.455 43.1456 68.4382 43.1621L68.3899 43.2469C68.3899 43.2716 68.2752 43.3951 68.0485 43.6176C67.8218 43.8415 67.6551 43.9939 67.55 44.0745C67.257 44.2853 66.9286 44.4239 66.5641 44.4885C66.3689 44.5292 66.1706 44.5292 65.9679 44.4885C65.5135 44.3915 65.1679 44.1963 64.9328 43.9049C64.8677 43.8318 64.7963 43.7058 64.7198 43.5274C64.643 43.3489 64.5842 43.1868 64.5436 43.0407C64.4625 42.7072 64.4436 42.2882 64.4889 41.7805C64.533 41.2732 64.6326 40.7853 64.787 40.3141C64.8522 40.1026 64.9509 39.8531 65.0852 39.5651C65.2183 39.277 65.3351 39.0607 65.4316 38.9138C65.5291 38.7849 65.5785 38.7113 65.5785 38.6954C65.5785 38.6706 65.6487 38.5858 65.7906 38.4397C65.9334 38.2936 66.056 38.1793 66.1623 38.0987C66.2358 38.0344 66.347 37.9656 66.4969 37.8912C66.6473 37.8183 66.7711 37.7742 66.8678 37.7582Z" fill="white"/>
<path d="M71.4193 35.0323C71.5735 34.9676 71.7079 35 71.8213 35.1289C71.8611 35.1784 71.8863 35.2632 71.8938 35.3846C71.9023 35.5064 71.9065 35.9124 71.9065 36.6028C71.9065 37.5346 71.8821 38.3181 71.833 38.9514C71.7847 39.5598 71.7603 39.9407 71.7603 40.0952V40.2652L71.8213 40.107C71.9191 39.8878 72.0156 39.6816 72.1131 39.4867C72.4943 38.7162 72.8681 38.2249 73.2334 38.0141C73.3552 37.941 73.4946 37.9024 73.6533 37.8982C73.8107 37.8936 73.9431 37.9251 74.0488 37.9894C74.2916 38.1443 74.4436 38.4474 74.5045 38.9023C74.5654 39.3565 74.5675 40.1846 74.5107 41.3851C74.4541 42.5449 74.4667 43.3243 74.5477 43.7225C74.5876 43.8921 74.6086 44.0223 74.6086 44.1113C74.6086 44.2737 74.5255 44.3737 74.3587 44.4102C74.1929 44.4455 74.069 44.3917 73.988 44.2456C73.9389 44.1642 73.8948 44.0265 73.8536 43.832C73.7562 43.402 73.752 42.3506 73.841 40.6802C73.9061 39.2999 73.841 38.6108 73.647 38.6108C73.5987 38.6108 73.5084 38.675 73.3791 38.8052C73.2489 38.9342 73.1439 39.0644 73.0621 39.1944C72.8437 39.5426 72.6266 39.9931 72.4112 40.5458C72.1962 41.0971 72.0156 41.6573 71.8695 42.225C71.7721 42.5987 71.71 42.8998 71.6818 43.132C71.6524 43.3634 71.6385 43.6611 71.6385 44.0265C71.6385 44.4812 71.6188 44.7402 71.5777 44.805L71.4559 44.9338L71.2732 44.9636C71.1758 44.9636 71.1053 44.9393 71.0604 44.8906C71.0162 44.8424 70.973 44.7563 70.9323 44.6349C70.9008 44.5294 70.8818 44.3531 70.8777 44.1062C70.8735 43.8589 70.8882 43.633 70.9205 43.4297C70.9448 43.2437 70.9688 42.6634 70.9932 41.6896C71.0255 40.6672 71.0624 39.8554 71.1032 39.2558C71.1598 38.615 71.1968 37.7832 71.2124 36.7607C71.2292 35.7533 71.2577 35.2108 71.2976 35.1289L71.4193 35.0323Z" fill="white"/>
<path d="M78.9533 38.2207C78.7665 38.1401 78.5817 38.1271 78.4004 38.1837C78.2177 38.2408 78.0568 38.3593 77.9195 38.5364C77.6109 38.9589 77.3715 39.5447 77.2015 40.2963C77.0302 41.0467 76.9818 41.7261 77.0545 42.3346C77.1113 42.7398 77.2371 43.0568 77.4325 43.2837C77.6265 43.5117 77.8742 43.6245 78.1744 43.6245C78.4012 43.6245 78.6103 43.5192 78.8013 43.3084C78.9925 43.0976 79.1487 42.7965 79.2705 42.4077C79.4564 41.8067 79.5362 41.1047 79.5077 40.3018C79.4783 39.4986 79.3557 38.9266 79.1361 38.586L79.0995 38.3916L79.0815 38.3001L78.9533 38.2207ZM78.4788 37.4539C78.6489 37.4292 78.8581 37.4594 79.1058 37.5455C79.3536 37.6304 79.5383 37.7378 79.6601 37.868C79.7408 37.957 79.8091 38.0692 79.8666 38.2022C79.9234 38.3366 79.9519 38.4558 79.9519 38.5613C79.9519 38.6838 79.9717 38.801 80.0128 38.914C80.1102 39.1902 80.1724 39.6244 80.2005 40.2165C80.2291 40.8091 80.2068 41.3121 80.1346 41.7261C79.9801 42.6924 79.6882 43.3974 79.2578 43.8437C78.8203 44.2897 78.3004 44.4241 77.6999 44.2456C77.3023 44.1402 76.9818 43.8941 76.7384 43.5095C76.4948 43.1236 76.3575 42.6504 76.3247 42.0906C76.2923 41.5065 76.3365 40.9434 76.4582 40.3996C76.58 39.8394 76.7753 39.2516 77.0428 38.6344C77.0827 38.5364 77.154 38.4139 77.2561 38.2635C77.3569 38.1132 77.4438 37.9982 77.5173 37.9163C77.7684 37.6647 78.0896 37.511 78.4788 37.4539Z" fill="white"/>
<path d="M85.7466 37.4293L85.9411 37.3562L86.172 37.4242L86.3304 37.5758C86.3714 37.6564 86.3934 37.9474 86.3975 38.4463C86.4017 38.9451 86.387 39.4255 86.3546 39.8879C86.3064 40.4564 86.282 41.138 86.282 41.9336L86.2694 43.1871L86.3799 43.6007C86.4437 43.8362 86.4743 44.0038 86.471 44.1063C86.4668 44.207 86.4282 44.2823 86.3546 44.331C86.2497 44.3964 86.1456 44.4103 86.0447 44.3737C85.9431 44.3372 85.8642 44.2532 85.8075 44.1243C85.6689 43.7825 85.5925 43.1946 85.5757 42.3594L85.5514 41.397L85.4057 41.7876C85.3813 41.8442 85.312 42.0185 85.1986 42.3108C85.1748 42.4002 85.0928 42.5744 84.9551 42.8331C84.8178 43.0934 84.7157 43.2761 84.6507 43.3815C84.5785 43.4869 84.4701 43.6171 84.3286 43.7708C84.1866 43.9253 84.0712 44.0353 83.9822 44.0995C83.7218 44.2781 83.4581 44.3351 83.1907 44.2696C82.7526 44.1801 82.4356 43.8321 82.2416 43.2236C82.1514 42.9474 82.0913 42.5035 82.0589 41.8904C82.0263 41.2777 82.0305 40.6919 82.0703 40.1318C82.103 39.7182 82.1228 39.1903 82.1312 38.5495C82.1479 38.0948 82.1598 37.8206 82.1682 37.7269L82.2416 37.5153C82.3054 37.4414 82.3894 37.4057 82.4902 37.4057C82.5922 37.4057 82.675 37.4456 82.74 37.5271L82.8379 37.6366L82.8253 38.6462C82.8094 39.402 82.7841 40.0062 82.7526 40.4597C82.7119 41.2067 82.7296 41.8656 82.8072 42.4375C82.8841 43.0095 82.9995 43.3685 83.1537 43.515C83.3565 43.686 83.624 43.5688 83.9569 43.1623C84.1522 42.9192 84.3693 42.5055 84.6087 41.9206C84.8481 41.3369 85.0601 40.6961 85.2469 39.9974C85.4338 39.2911 85.5471 38.8191 85.5883 38.5798C85.629 38.3409 85.6366 38.1402 85.6123 37.9776C85.5883 37.8227 85.5841 37.7102 85.6009 37.6366L85.7466 37.4293Z" fill="white"/>
<path d="M90.3463 37.6362C90.7842 37.4901 91.2344 37.4947 91.6975 37.6485C92.3304 37.8676 92.7355 38.2728 92.9141 38.8653C92.9791 39.0845 92.9707 39.2424 92.8901 39.3403C92.7767 39.4863 92.6381 39.5145 92.4765 39.4251C92.403 39.3843 92.3304 39.2672 92.2569 39.0728C92.1352 38.7477 91.9244 38.5084 91.6241 38.3547L91.3805 38.2686C91.3155 38.2611 91.1946 38.2569 91.016 38.2569C90.7556 38.2569 90.5533 38.2934 90.4071 38.3664C90.172 38.4803 90.0011 38.634 89.8961 38.8284C89.7899 39.0232 89.7617 39.2306 89.8108 39.4498C89.8352 39.5628 89.8793 39.6564 89.9445 39.7295C90.0747 39.8681 90.3547 39.9811 90.7842 40.0701C91.1411 40.1432 91.4255 40.2292 91.6367 40.3262C91.8475 40.424 92.0461 40.5655 92.233 40.7516C92.6306 41.1497 92.8293 41.6569 92.8293 42.2729C92.8293 42.7038 92.7313 43.1047 92.5374 43.4789C92.4555 43.6326 92.3954 43.7401 92.3547 43.8001C92.3136 43.8614 92.2246 43.9614 92.0868 44.0991C91.7131 44.4968 91.2995 44.6786 90.8452 44.6462C90.2371 44.598 89.7176 44.2776 89.2872 43.6855C89.1823 43.523 89.1297 43.4314 89.1297 43.4113C89.1297 43.3908 89.1004 43.3285 89.0437 43.2232C88.9543 43.0283 88.9059 42.789 88.8975 42.5051C88.8892 42.2213 88.9303 41.9857 89.0193 41.7988C89.0437 41.7506 89.0887 41.6481 89.1537 41.4944L89.3112 41.2634L89.5064 41.1421C89.726 41.0849 89.8718 41.129 89.9445 41.2752C90.0251 41.4213 90.0053 41.5633 89.8835 41.701C89.729 41.8803 89.6324 42.0945 89.5917 42.346C89.5833 42.4513 89.598 42.5963 89.6346 42.778C89.6702 42.9608 89.7176 43.0846 89.7744 43.1501L89.8478 43.2714C89.8478 43.3362 89.9507 43.4499 90.1573 43.612C90.3644 43.7745 90.5289 43.8757 90.6507 43.9164C90.8452 43.9735 91.0098 43.9811 91.1433 43.9413C91.2777 43.9005 91.4255 43.7951 91.5884 43.6241C91.7907 43.4218 91.9453 43.1577 92.0502 42.8326C92.1637 42.4934 92.1784 42.1621 92.0931 41.8416C92.007 41.5204 91.8391 41.271 91.5884 41.0926C91.4171 40.9712 91.0602 40.8452 90.5164 40.715C90.0221 40.5937 89.6681 40.4282 89.4581 40.2161C89.3196 40.0701 89.2264 39.9328 89.1781 39.8026C89.1297 39.6724 89.1046 39.4905 89.1046 39.2554C89.1046 39.0682 89.1109 38.9426 89.1235 38.8779C89.1348 38.8124 89.1697 38.7234 89.2264 38.6105C89.4456 38.1397 89.8185 37.8147 90.3463 37.6362Z" fill="white"/>
<path d="M97.3331 38.5128C97.3003 38.4721 97.2269 38.4514 97.1135 38.4514C96.8859 38.4514 96.6465 38.59 96.3954 38.8655C96.2002 39.0683 96.0083 39.3631 95.8173 39.7477C95.627 40.1336 95.4905 40.4842 95.4098 40.8005C95.3688 40.9637 95.3561 41.0529 95.373 41.0692C95.3889 41.0851 95.4884 41.0646 95.6711 41.0079C95.8537 40.9507 95.9977 40.8937 96.1036 40.837C96.2085 40.7807 96.3324 40.6875 96.4744 40.5573C96.6159 40.4284 96.6872 40.3423 96.6872 40.3016L96.7242 40.2293C96.7398 40.2293 96.7956 40.1479 96.8879 39.9854C96.9812 39.8229 97.0568 39.6814 97.1135 39.5596C97.2269 39.3156 97.3045 39.0944 97.3445 38.8953C97.3855 38.6975 97.3813 38.5699 97.3331 38.5128ZM96.9182 37.7582C97.0568 37.7334 97.2227 37.7473 97.4179 37.8011C97.6124 37.8539 97.7538 37.9278 97.8441 38.0256C97.9084 38.0987 97.9617 38.1945 98.0016 38.3117C98.0428 38.43 98.0583 38.59 98.0512 38.792C98.0428 38.9952 98.0058 39.1854 97.9407 39.364C97.8924 39.5189 97.8118 39.7112 97.6972 39.9425C97.5838 40.1735 97.4906 40.3498 97.4179 40.4725L97.3507 40.5636L97.2835 40.6606L97.2478 40.7152C97.2155 40.7807 97.1093 40.8937 96.9308 41.0562C96.7368 41.2594 96.4941 41.4282 96.2065 41.5613C95.9188 41.6957 95.6534 41.7625 95.4098 41.7625H95.2512L95.2272 41.9451C95.2029 42.0505 95.2029 42.2491 95.2272 42.5405C95.2671 42.963 95.3688 43.2738 95.5316 43.4727C95.6933 43.6714 95.9285 43.7822 96.2371 43.8071C96.8784 43.8566 97.5397 43.3652 98.2212 42.3343C98.4081 42.0589 98.5277 41.8721 98.5803 41.7742C98.6327 41.6772 98.6957 41.5357 98.7691 41.3485C98.8259 41.1948 98.8805 41.0906 98.933 41.0377C98.9854 40.9852 99.0652 40.9591 99.1702 40.9591C99.2676 40.9591 99.3487 40.9936 99.4138 41.0624C99.4788 41.1313 99.5028 41.2153 99.4872 41.3119C99.4461 41.6365 99.2269 42.0904 98.8301 42.6749C98.6189 42.9835 98.5055 43.1456 98.4887 43.1621L98.4404 43.2469C98.4404 43.2716 98.3261 43.3951 98.0994 43.6176C97.8727 43.8415 97.7056 43.9939 97.6005 44.0745C97.3079 44.2853 96.9791 44.4239 96.615 44.4885C96.4198 44.5292 96.2211 44.5292 96.0188 44.4885C95.564 44.3915 95.2188 44.1963 94.9837 43.9049C94.9186 43.8318 94.8472 43.7058 94.7703 43.5274C94.6939 43.3489 94.6351 43.1868 94.594 43.0407C94.5134 42.7072 94.4945 42.2882 94.5394 41.7805C94.5835 41.2732 94.6835 40.7853 94.8375 40.3141C94.9027 40.1026 95.0014 39.8531 95.1357 39.5651C95.2692 39.277 95.3855 39.0607 95.4821 38.9138C95.5799 38.7849 95.6291 38.7113 95.6291 38.6954C95.6291 38.6706 95.6997 38.5858 95.8411 38.4397C95.9839 38.2936 96.107 38.1793 96.2127 38.0987C96.2863 38.0344 96.3975 37.9656 96.5478 37.8912C96.6978 37.8183 96.8216 37.7742 96.9182 37.7582Z" fill="white"/>
</svg>
